<?xml version="1.0" encoding="iso-8859-1"?>
<!-- Generator: Adobe Illustrator 19.0.0, SVG Export Plug-In . SVG Version: 6.00 Build 0)  -->
<svg version="1.1" id="Capa_1" xmlns="http://www.w3.org/2000/svg" xmlns:xlink="http://www.w3.org/1999/xlink" x="0px" y="0px"
	 viewBox="0 0 422.971 422.971" style="enable-background:new 0 0 422.971 422.971;" xml:space="preserve">
<g>
	<path style="fill:#FF4979;" d="M217.483,297.801c-0.075-52.577,42.487-95.261,95.064-95.336
		c27.139-0.039,53.004,11.507,71.096,31.736l4-4c47.088-47.066,47.106-123.392,0.04-170.48s-123.392-47.106-170.48-0.04l0,0l-4,4
		l-4-4C164.13,10.703,87.887,7.537,38.909,52.61s-52.143,121.316-7.07,170.294c2.213,2.405,4.523,4.719,6.925,6.936l170.8,170.8
		c2.018,1.981,5.217,2.085,7.36,0.24l32.28-32.28C229.036,350.59,217.499,324.84,217.483,297.801L217.483,297.801z"/>
	<path style="fill:#FF4979;" d="M312.843,215.121c-45.663,0-82.68,37.017-82.68,82.68s37.017,82.68,82.68,82.68
		s82.68-37.017,82.68-82.68l0,0C395.479,252.156,358.488,215.165,312.843,215.121z M358.123,343.121
		c-5.23,5.236-13.715,5.24-18.95,0.01c-0.003-0.003-0.006-0.006-0.01-0.01l-26.32-26.32l-26.32,26.32
		c-5.236,5.236-13.724,5.236-18.96,0s-5.236-13.724,0-18.96l26.32-26.32l-26.32-26.32c-5.236-5.236-5.236-13.724,0-18.96
		s13.724-5.236,18.96,0l26.32,26.32l26.32-26.32c5.236-5.236,13.724-5.236,18.96,0s5.236,13.724,0,18.96l-26.32,26.32l26.32,26.32
		c5.186,5.225,5.186,13.655,0,18.88V343.121z"/>
</g>
<g>
</g>
<g>
</g>
<g>
</g>
<g>
</g>
<g>
</g>
<g>
</g>
<g>
</g>
<g>
</g>
<g>
</g>
<g>
</g>
<g>
</g>
<g>
</g>
<g>
</g>
<g>
</g>
<g>
</g>
</svg>
