<?xml version="1.0" encoding="utf-8"?>
<!-- Svg Vector Icons : http://www.onlinewebfonts.com/icon -->
<!DOCTYPE svg PUBLIC "-//W3C//DTD SVG 1.1//EN" "http://www.w3.org/Graphics/SVG/1.1/DTD/svg11.dtd">
<svg version="1.1" xmlns="http://www.w3.org/2000/svg" xmlns:xlink="http://www.w3.org/1999/xlink" x="0px" y="0px" viewBox="0 0 1000 1000" enable-background="new 0 0 1000 1000" xml:space="preserve">
<metadata> Svg Vector Icons : http://www.onlinewebfonts.com/icon </metadata>
<g><path d="M702.7,787c-9.5-9.5-9.2-24.5,0-34.6l203.3-227.8l-871.6,0C21,524.5,10,513.5,10,500s11-24.5,24.5-24.5h871.6L703,247.7c-8.9-10.4-9.8-24.8-0.3-34.3c9.5-9.5,26-10.1,34.9-0.3c0,0,242.6,266.4,245,269.5s7.3,8.6,7.3,17.5s-4.9,15-7.3,17.5S737.7,787,737.7,787c-4.6,4.6-11,7-17.5,7C713.8,794,707.6,791.6,702.7,787z"/></g>
</svg>