<svg xmlns="http://www.w3.org/2000/svg" xmlns:xlink="http://www.w3.org/1999/xlink" viewBox="0 0 852.93 625"><defs><style>.cls-1{fill:#f4f4f4;}.cls-2{fill:#ededed;}.cls-3{fill:#5c5c5c;opacity:0.15;}.cls-4{fill:url(#Dégradé_sans_nom_4);}.cls-5{fill:url(#Dégradé_sans_nom_2);}.cls-6{fill:url(#Dégradé_sans_nom_4-2);}.cls-7{fill:url(#Dégradé_sans_nom_4-3);}.cls-8{fill:url(#Dégradé_sans_nom_5);}.cls-9{fill:#fff;}.cls-10{fill:url(#Dégradé_sans_nom_17);}</style><linearGradient id="Dégradé_sans_nom_4" x1="449.42" y1="606.11" x2="451.11" y2="453.69" gradientTransform="matrix(1, 0, 0, -1, -43, 759)" gradientUnits="userSpaceOnUse"><stop offset="0" stop-color="#6e07bf"/><stop offset="1" stop-color="#cd0fc0"/></linearGradient><linearGradient id="Dégradé_sans_nom_2" x1="665.28" y1="-64.23" x2="667.1" y2="-228.21" gradientTransform="matrix(1, 0, 0, -1, -212.99, 362.5)" gradientUnits="userSpaceOnUse"><stop offset="0" stop-color="#6e07bf"/><stop offset="0.22" stop-color="#7207bf"/><stop offset="0.42" stop-color="#7d08bf"/><stop offset="0.62" stop-color="#8f0abf"/><stop offset="0.8" stop-color="#a90cc0"/><stop offset="0.99" stop-color="#ca0fc0"/><stop offset="1" stop-color="#cd0fc0"/></linearGradient><linearGradient id="Dégradé_sans_nom_4-2" x1="546.77" y1="84.54" x2="550.25" y2="-229.59" gradientTransform="matrix(1, 0, 0, -1, -212.99, 362.5)" xlink:href="#Dégradé_sans_nom_4"/><linearGradient id="Dégradé_sans_nom_4-3" x1="548.67" y1="-39.68" x2="548.83" y2="-39.68" gradientTransform="matrix(1, 0, 0, -1, -212.99, 362.5)" xlink:href="#Dégradé_sans_nom_4"/><linearGradient id="Dégradé_sans_nom_5" x1="661.26" y1="86.65" x2="664.33" y2="-190.55" gradientTransform="matrix(1, 0, 0, -1, -212.99, 362.5)" gradientUnits="userSpaceOnUse"><stop offset="0" stop-color="#6e07bf"/><stop offset="0.03" stop-color="#7307bf"/><stop offset="0.32" stop-color="#9a0bbf"/><stop offset="0.59" stop-color="#b60dc0"/><stop offset="0.83" stop-color="#c70ec0"/><stop offset="1" stop-color="#cd0fc0"/></linearGradient><linearGradient id="Dégradé_sans_nom_17" x1="-447.02" y1="688.63" x2="-446.52" y2="688.63" gradientUnits="userSpaceOnUse"><stop offset="0" stop-color="#56c14f"/><stop offset="1" stop-color="#00b240"/></linearGradient></defs><title>mess-send</title><g id="Calque_2" data-name="Calque 2"><path class="cls-1" d="M856,182V689a41.12,41.12,0,0,1-41,41H765V289L450,519l-.5-.37L135,289V730H84a41.12,41.12,0,0,1-41-41V182a41.12,41.12,0,0,1,41-41h16L449.5,392.64l.5.36L800.78,141H815A41.12,41.12,0,0,1,856,182Z" transform="translate(-43 -141)"/><polygon class="cls-2" points="722 148 722 589 92 589 92 148 406.5 377.63 407 378 722 148"/><polygon class="cls-2" points="757.78 0 407 252 406.5 251.64 57 0 757.78 0"/><path class="cls-3" d="M856,182V689a41.12,41.12,0,0,1-41,41H449.5V141H815A41.12,41.12,0,0,1,856,182Z" transform="translate(-43 -141)"/></g><g id="Calque_4" data-name="Calque 4"><g id="Calque_5" data-name="Calque 5"><circle class="cls-4" cx="407.26" cy="228.87" r="76.37"/><path class="cls-5" d="M559.29,425.11C537.57,526.44,452.15,590.65,452.15,590.65c-64.74-50.15-93.71-104.87-106.66-144.46,7,17.23,16.89,32.77,27.83,46.42,23.86,29.75,52.69,50.48,67.37,60a3.66,3.66,0,0,0,5.47-4.25,104.3,104.3,0,0,1-5.15-24.2c-2.25-25.65,5.39-59.83,52.56-81.15a3.66,3.66,0,0,1,4.64,1.45c3.76,6.22,12.34,21.74,11.83,32.73a3.67,3.67,0,0,0,3.5,3.83,3.73,3.73,0,0,0,1.94-.45C527.25,474,549.53,457.89,559.29,425.11Z" transform="translate(-43 -141)"/><path class="cls-6" d="M335,391.4v0Z" transform="translate(-43 -141)"/></g><g id="Calque_2-2" data-name="Calque 2"><path class="cls-7" d="M335.68,401.41c.05.5.1,1,.16,1.54C335.79,402.42,335.73,401.9,335.68,401.41Z" transform="translate(-43 -141)"/><path class="cls-8" d="M564,390.15h0a221.92,221.92,0,0,1-3,26.22q-.75,4.41-1.7,8.72c-9.76,32.77-32,48.92-43.81,55.42a3.68,3.68,0,0,1-5.44-3.38c.51-11-8.07-26.51-11.83-32.73a3.67,3.67,0,0,0-4.64-1.45C446.4,464.27,438.76,498.46,441,524.1a104.19,104.19,0,0,0,5.15,24.2,3.67,3.67,0,0,1-5.47,4.26c-14.67-9.48-43.51-30.22-67.37-60-10.94-13.65-20.84-29.19-27.83-46.42a226.55,226.55,0,0,1-8.4-34.14v0c-.1-.64-.2-1.26-.29-1.88s-.17-1.14-.25-1.66q-.42-3-.7-5.51c-.06-.53-.11-1.05-.16-1.55,0-.14,0-.27,0-.41,0-.4-.08-.8-.12-1.18s-.08-1-.12-1.47c0-.29-.05-.58-.07-.86v-.16c0-.14,0-.29,0-.43s0-.41,0-.61a1.42,1.42,0,0,0,0-.3,1.5,1.5,0,0,1,0-.3,1.83,1.83,0,0,0,0-.32h0c0-.13,0-.27,0-.4s0-.37,0-.56c0-.35,0-.67-.05-1v-3.29a114.42,114.42,0,0,1,228.84,0Z" transform="translate(-43 -141)"/><path class="cls-9" d="M335,390.52v0Z" transform="translate(-43 -141)"/></g><path class="cls-10" d="M820.35,764.16a6.54,6.54,0,0,1,0-9.11l53.5-59.94H644.49a6.46,6.46,0,0,1,0-12.92H873.88l-53.45-60c-2.34-2.74-2.58-6.53-.08-9s6.85-2.66,9.19-.08c0,0,63.84,70.11,64.47,70.92a7.14,7.14,0,0,1,1.92,4.61,6.71,6.71,0,0,1-1.92,4.6c-.63.66-64.45,70.9-64.45,70.9A6.5,6.5,0,0,1,825,766,6.71,6.71,0,0,1,820.35,764.16Z" transform="translate(-43 -141)"/></g></svg>