<svg xmlns="http://www.w3.org/2000/svg" xmlns:xlink="http://www.w3.org/1999/xlink" width="1920" height="1080" viewBox="0 0 1920 1080">
  <defs>
    <linearGradient id="linear-gradient" y1="0.5" x2="1" y2="0.5" gradientUnits="objectBoundingBox">
      <stop offset="0" stop-color="#e0e0e0"/>
      <stop offset="1" stop-color="#fff"/>
    </linearGradient>
    <clipPath id="clip-Web_1920_1">
      <rect width="1920" height="1080"/>
    </clipPath>
  </defs>
  <g id="Web_1920_1" data-name="Web 1920 – 1" clip-path="url(#clip-Web_1920_1)">
    <g id="Groupe_26" data-name="Groupe 26" transform="translate(0 78.735) rotate(-90)">
      <path id="Tracé_75" data-name="Tracé 75" d="M93.476,0c-47,267-158,253-43,339s159,327,122,48-16-320-46-346S93.476,0,93.476,0Z" transform="translate(188.476 1188.144) rotate(180)" fill="url(#linear-gradient)"/>
      <path id="Tracé_77" data-name="Tracé 77" d="M327.538,0V202.08c-6.25-3.63-13.44-7.91-21.76-12.66a675.35,675.35,0,0,0-75-37.14c-29.8-12.57-66.34-25.52-111.24-37.28-248-65-20-20-100-115Z" transform="translate(323.538 1920) rotate(180)" fill="url(#linear-gradient)"/>
      <path id="Tracé_78" data-name="Tracé 78" d="M117.6,28.253v83.16c-6.8,1.45-14,3.1-21.76,5-12.31,3.07-25.76,6.84-40.24,11.58-82.12,26.88-54.45-2.54-34.72-48.72,6.72-15.66,12.47-33.26,12.72-51.26l4-6a32.85,32.85,0,0,1,18-21C65.4-3.557,88.85,7.653,117.6,28.253Z" transform="translate(113.6 1847.013) rotate(180)" fill="url(#linear-gradient)"/>
      <path id="Tracé_79" data-name="Tracé 79" d="M105.622,11.552v230.56c-21.71-8.36-24.79-20.51-34.79-52-7.34-23.06-18.39-56.48-43.21-106.48-49.16-98.95-28.41-87.08,28.46-77.29A329.519,329.519,0,0,0,105.622,11.552Z" transform="translate(101.622 1192.349) rotate(180)" fill="url(#linear-gradient)"/>
      <path id="Tracé_80" data-name="Tracé 80" d="M169,0V332.64H24.81c.08-29.46-2.44-52.78-5.91-71.75C4.19,180.3-27.49,178.17,51,117.64c34.19-26.37,61.67-58.7,86.22-85.61,7.34-8,14.42-15.59,21.34-22.36C162.08,6.23,165.55,2.99,169,0Z" transform="translate(165 332.64) rotate(180)" fill="url(#linear-gradient)"/>
      <path id="Tracé_74" data-name="Tracé 74" d="M89.388,174.123c.34-1.63.68-3.29,1-5,31-152,95-204-10-146s-77,90-77,90c15.74,15.18,27.06,38.71,35.93,61Z" transform="translate(298.387 242.123) rotate(180)" fill="url(#linear-gradient)"/>
      <path id="Tracé_76" data-name="Tracé 76" d="M385.47,25.65V82.72H0C81.53,27.12,51.16-.11,116.2,0c14.21,0,33,1.35,58.47,4,17,1.75,37,4.08,60.7,7l6.1.75C294.41,18.27,342.74,22.47,385.47,25.65Z" transform="translate(381.47 82.72) rotate(180)" fill="url(#linear-gradient)"/>
    </g>
  </g>
</svg>
