<svg id="Calque_1" data-name="Calque 1" xmlns="http://www.w3.org/2000/svg" xmlns:xlink="http://www.w3.org/1999/xlink" viewBox="0 0 1920 1082"><defs><style>.cls-1{fill:#fff;}.cls-2{fill:url(#Dégradé_sans_nom_6);}.cls-3{fill:url(#Dégradé_sans_nom_6-2);}.cls-4{fill:url(#Dégradé_sans_nom_6-3);}.cls-5{fill:url(#Dégradé_sans_nom_6-4);}.cls-6{fill:url(#Dégradé_sans_nom_6-5);}.cls-7{fill:url(#Dégradé_sans_nom_6-6);}.cls-8{fill:url(#Dégradé_sans_nom_6-7);}.cls-9{fill:url(#Dégradé_sans_nom_6-8);}.cls-10{fill:url(#Dégradé_sans_nom_6-9);}.cls-11{fill:url(#Dégradé_sans_nom_6-10);}.cls-12{fill:url(#Dégradé_sans_nom_6-11);}.cls-13{fill:url(#Dégradé_sans_nom_6-12);}.cls-14{fill:url(#Dégradé_sans_nom_6-13);}.cls-15{fill:url(#Dégradé_sans_nom_6-14);}.cls-16{fill:url(#Dégradé_sans_nom_6-15);}.cls-17{fill:url(#Dégradé_sans_nom_6-16);}.cls-18{fill:url(#Dégradé_sans_nom_6-17);}.cls-19{fill:url(#Dégradé_sans_nom_6-18);}.cls-20{fill:url(#Dégradé_sans_nom_6-19);}.cls-21{fill:url(#Dégradé_sans_nom_6-20);}.cls-22{fill:url(#Dégradé_sans_nom_6-21);}.cls-23{fill:url(#Dégradé_sans_nom_6-22);}.cls-24{fill:url(#Dégradé_sans_nom_6-23);}.cls-25{fill:url(#Dégradé_sans_nom_6-24);}</style><linearGradient id="Dégradé_sans_nom_6" x1="1617.61" y1="924.94" x2="1755.85" y2="924.94" gradientUnits="userSpaceOnUse"><stop offset="0" stop-color="#cd15be"/><stop offset="1" stop-color="#700ebd"/></linearGradient><linearGradient id="Dégradé_sans_nom_6-2" x1="1543" y1="206.37" x2="2060.81" y2="206.37" gradientTransform="translate(2026.53 -1249.58) rotate(90)" xlink:href="#Dégradé_sans_nom_6"/><linearGradient id="Dégradé_sans_nom_6-3" x1="189" y1="1049.48" x2="1123" y2="1049.48" xlink:href="#Dégradé_sans_nom_6"/><linearGradient id="Dégradé_sans_nom_6-4" x1="1534.53" y1="1038.64" x2="1920" y2="1038.64" xlink:href="#Dégradé_sans_nom_6"/><linearGradient id="Dégradé_sans_nom_6-5" x1="960" y1="1058.92" x2="1355.8" y2="1058.92" xlink:href="#Dégradé_sans_nom_6"/><linearGradient id="Dégradé_sans_nom_6-6" x1="396.99" y1="1014.62" x2="676.8" y2="1014.62" xlink:href="#Dégradé_sans_nom_6"/><linearGradient id="Dégradé_sans_nom_6-7" x1="1592.46" y1="101.04" x2="1920" y2="101.04" xlink:href="#Dégradé_sans_nom_6"/><linearGradient id="Dégradé_sans_nom_6-8" x1="1845" y1="204.25" x2="2002.37" y2="204.25" gradientTransform="translate(2026.53 -1249.58) rotate(90)" xlink:href="#Dégradé_sans_nom_6"/><linearGradient id="Dégradé_sans_nom_6-9" x1="0" y1="843.06" x2="232.12" y2="843.06" xlink:href="#Dégradé_sans_nom_6"/><linearGradient id="Dégradé_sans_nom_6-10" x1="0" y1="172.19" x2="432.24" y2="172.19" xlink:href="#Dégradé_sans_nom_6"/><linearGradient id="Dégradé_sans_nom_6-11" x1="95.22" y1="160.62" x2="181.16" y2="160.62" xlink:href="#Dégradé_sans_nom_6"/><linearGradient id="Dégradé_sans_nom_6-12" x1="89.22" y1="176.93" x2="119.76" y2="176.93" xlink:href="#Dégradé_sans_nom_6"/><linearGradient id="Dégradé_sans_nom_6-13" x1="10.6" y1="218.48" x2="94.86" y2="218.48" xlink:href="#Dégradé_sans_nom_6"/><linearGradient id="Dégradé_sans_nom_6-14" x1="151.96" y1="65.38" x2="353.83" y2="65.38" xlink:href="#Dégradé_sans_nom_6"/><linearGradient id="Dégradé_sans_nom_6-15" x1="14.73" y1="490.18" x2="150.79" y2="490.18" xlink:href="#Dégradé_sans_nom_6"/><linearGradient id="Dégradé_sans_nom_6-16" x1="19.5" y1="342.15" x2="135.41" y2="342.15" xlink:href="#Dégradé_sans_nom_6"/><linearGradient id="Dégradé_sans_nom_6-17" x1="47" y1="583.27" x2="104.78" y2="583.27" xlink:href="#Dégradé_sans_nom_6"/><linearGradient id="Dégradé_sans_nom_6-18" x1="54.2" y1="895.24" x2="220.49" y2="895.24" xlink:href="#Dégradé_sans_nom_6"/><linearGradient id="Dégradé_sans_nom_6-19" x1="7.84" y1="864.94" x2="136.55" y2="864.94" xlink:href="#Dégradé_sans_nom_6"/><linearGradient id="Dégradé_sans_nom_6-20" x1="1802.4" y1="142.12" x2="1920" y2="142.12" xlink:href="#Dégradé_sans_nom_6"/><linearGradient id="Dégradé_sans_nom_6-21" x1="1814.38" y1="484.42" x2="1920" y2="484.42" xlink:href="#Dégradé_sans_nom_6"/><linearGradient id="Dégradé_sans_nom_6-22" x1="1751" y1="913.68" x2="1920" y2="913.68" xlink:href="#Dégradé_sans_nom_6"/><linearGradient id="Dégradé_sans_nom_6-23" x1="0" y1="65.3" x2="110.58" y2="65.3" xlink:href="#Dégradé_sans_nom_6"/><linearGradient id="Dégradé_sans_nom_6-24" x1="0" y1="624.9" x2="250.7" y2="624.9" xlink:href="#Dégradé_sans_nom_6"/></defs><title>wall-2</title><rect class="cls-1" width="1920" height="1080"/><path class="cls-2" d="M1707,1012c.34-1.63.68-3.29,1-5,31-152,95-204-10-146s-77,90-77,90c15.74,15.18,27.06,38.71,35.93,61Z"/><path class="cls-3" d="M1821,293.43c-47,267-158,253-43,339s159,327,122,48-16-320-46-346S1821,293.43,1821,293.43Z"/><path class="cls-4" d="M1123,1082H189v-65q16.6,1.51,35.78,3.12c36.44,3,80.13,6.33,132.22,9.92q20.61,1.43,40,2.73c124.15,8.36,211.44,13.35,275.68,16.49,32,1.57,58.31,2.67,80.59,3.5,70,2.59,100.45,2.47,144.35,5.42,41.88,2.81,96,8.42,208.62,21.86Z"/><path class="cls-5" d="M1920,1022.93V1080H1534.53c81.53-55.6,51.16-82.83,116.2-82.72,14.21,0,33,1.35,58.47,4,17,1.75,37,4.08,60.7,7l6.1.75C1828.94,1015.55,1877.27,1019.75,1920,1022.93Z"/><path class="cls-6" d="M1333.71,1080H1119.89l-12.1-2.18c-142.33-25.59-23-4.57-147.79-39.82h60c34.06,0,43-.64,77.62.63,26.38,1,67.68,3,146.38,7.37C1401.25,1054.64,1352.46,1035.66,1333.71,1080Z"/><path class="cls-7" d="M676.79,1036.82c-.09,5.22-1.42,9.23-4.11,12.4C658,1066.55,602.36,1058.47,484,1082H409.85c10.15-11.87,23.7-30.65-12.85-49.27h0S490,1000,508,969c17.29-29.78,127.79-36.49,158.62,28.63A75.77,75.77,0,0,1,670,1006C674.53,1019.42,676.93,1029.35,676.79,1036.82Z"/><path class="cls-8" d="M1920,0V202.08c-6.25-3.63-13.44-7.91-21.76-12.66a675.37,675.37,0,0,0-75-37.14C1793.44,139.71,1756.9,126.76,1712,115c-248-65-20-20-100-115Z"/><path class="cls-9" d="M1832,602.43c-40,106-122,163-37,148s108,39,81-54-44-101-44-101Z"/><path class="cls-10" d="M189,1082v-2H0V604.12c24.42,25,47.7,62.94,95.22,153.44q5.32,10.14,11.07,21.18C122.36,809.63,141,846,163,889l2.36,4.63c38.44,75.35,54.1,110,59.42,126.45,10.5,32.53-19.16-5.36,6.54,59.92l.8,2Z"/><path class="cls-11" d="M432.24,0C427,36.55,412.64,95.77,359,194.24,219.71,450.18,310.57,311.42,13.75,265.17L0,263V0Z"/><path class="cls-12" d="M97,118c13,67,23,103,23,103s91,30,51-52-70-80-74-68S97,118,97,118Z"/><path class="cls-13" d="M95,178c17,10,32,40,21,10s-8-40-21-33S95,178,95,178Z"/><path class="cls-14" d="M74,222c14,15,21,71,19,16s14-68-22-61-41,6-42,16-35,24-8,40,30,20,41,10S74,222,74,222Z"/><path class="cls-15" d="M283,111c-65.59,59.63-39.33-33.82-50.78-43.81-1.48,1.27-3.55,3.14-6.22,5.81-6,6-15,17-29,25s-18-1-31-6-12-7-14-78a78.07,78.07,0,0,1,.78-14H322.56c2.93,9.27,7,19.91,17.44,31C371,64,349,51,283,111Z"/><path class="cls-16" d="M25,533s-39,141,35,43,118-69,72-133-59-67-70-63-40-34-44,15S25,533,25,533Z"/><path class="cls-17" d="M63,311c-.26.85-.52,1.68-.77,2.52q-2,6.45-3.68,12.36C40.27,388.69,42,406,42,406s27-1,38-1,42,3,44-23,31-75-12-83-38-14-38-14-45-19-48,7-13,25,0,31S63,311,63,311Z"/><path class="cls-18" d="M47,561c35,48,48,97,53,54s8-36-1-50-27-30-31-30H50Z"/><path class="cls-19" d="M65,898c18,83-14,154,33,89s57.73-86.74,67.36-93.37S261,860,197,826s-90-60-114-42-33-18-27,36S65,898,65,898Z"/><path class="cls-20" d="M11,881c39,22,9.09,69.12,56,27.56S168,896,114,845s-90-39-90-39S9,826,8,836,11,881,11,881Z"/><path class="cls-21" d="M1920,101.24V184.4c-6.8,1.45-14,3.1-21.76,5-12.31,3.07-25.76,6.84-40.24,11.58-82.12,26.88-54.45-2.54-34.72-48.72C1830,136.6,1835.75,119,1836,101l4-6a32.85,32.85,0,0,1,18-21C1867.8,69.43,1891.25,80.64,1920,101.24Z"/><path class="cls-22" d="M1920,374.92V605.48c-21.71-8.36-24.79-20.51-34.79-52C1877.87,530.42,1866.82,497,1842,447c-49.16-98.95-28.41-87.08,28.46-77.29A329.52,329.52,0,0,0,1920,374.92Z"/><path class="cls-23" d="M1920,747.36V1080H1775.81c.08-29.46-2.44-52.78-5.91-71.75-14.71-80.59-46.39-82.72,32.1-143.25,34.19-26.37,61.67-58.7,86.22-85.61,7.34-8,14.42-15.59,21.34-22.36C1913.08,753.59,1916.55,750.35,1920,747.36Z"/><path class="cls-24" d="M110.58,0C106.76,24.41,93.12,21.86,33,95,18.82,112.25,8.3,123.81,0,130.61V0Z"/><path class="cls-25" d="M95.22,757.56c-63,48-83.58,53.15-95.22,26.19v-334a152.5,152.5,0,0,1,18.11,4.11c27.59,7.9,64.5,24.92,111,52.51Q150.69,519.15,175,535C313,625,248,641,95.22,757.56Z"/></svg>