<svg xmlns="http://www.w3.org/2000/svg" xmlns:xlink="http://www.w3.org/1999/xlink" width="1920.349" height="1080.398" viewBox="0 0 1920.349 1080.398">
  <defs>
    <linearGradient id="linear-gradient" y1="0.5" x2="1" y2="0.5" gradientUnits="objectBoundingBox">
      <stop offset="0" stop-color="#fff"/>
      <stop offset="1" stop-color="#ddd"/>
    </linearGradient>
  </defs>
  <g id="wall-white" transform="translate(4307.349 2263.398) rotate(180)" opacity="0.3">
    <path id="Tracé_32" data-name="Tracé 32" d="M68.919,134.251c.262-1.257.524-2.537.771-3.855C93.592,13.2,142.937-26.891,61.98,17.828S2.612,87.22,2.612,87.22c12.136,11.7,20.864,29.846,27.7,47.032Z" transform="translate(2620.146 1371.223) rotate(180)" fill="url(#linear-gradient)"/>
    <path id="Tracé_33" data-name="Tracé 33" d="M72.071,0C35.833,205.861-49.749,195.067,38.917,261.374S161.509,513.5,132.981,298.383,120.645,51.658,97.515,31.612,72.071,0,72.071,0Z" transform="translate(2535.402 1909.135) rotate(180)" fill="url(#linear-gradient)"/>
    <path id="Tracé_34" data-name="Tracé 34" d="M720.128,50.116H0V0Q12.8,1.164,27.587,2.406c28.1,2.313,61.781,4.88,101.944,7.649q15.891,1.1,30.841,2.1C256.093,18.6,323.395,22.452,372.925,24.873c24.673,1.21,44.958,2.059,62.136,2.7,53.971,2,77.448,1.9,111.3,4.179,32.29,2.167,74.018,6.492,160.849,16.854Z" transform="translate(4161.627 1233.116) rotate(180)" fill="url(#linear-gradient)"/>
    <path id="Tracé_35" data-name="Tracé 35" d="M297.2,19.777v44H0C62.861,20.91,39.445-.085,89.592,0c10.956,0,25.444,1.041,45.081,3.084,13.107,1.349,28.528,3.146,46.8,5.4l4.7.578C226.995,14.087,264.258,17.325,297.2,19.777Z" transform="translate(2684.203 1248.321) rotate(180)" fill="url(#linear-gradient)"/>
    <path id="Tracé_36" data-name="Tracé 36" d="M288.136,32.507H123.278l-9.329-1.681C4.21,11.1,96.215,27.3,0,.124H46.261c26.261,0,33.154-.493,59.846.486,20.339.771,52.182,2.313,112.861,5.682C340.21,12.954,302.593-1.68,288.136,32.507Z" transform="translate(3290.046 1217.049) rotate(180)" fill="url(#linear-gradient)"/>
    <path id="Tracé_37" data-name="Tracé 37" d="M215.722,69.065c-.069,4.025-1.095,7.116-3.169,9.561C201.235,91.988,158.336,85.758,67.078,103.9H9.908C17.733,94.748,28.181,80.268,0,65.912H0S71.7,40.676,85.583,16.775c13.331-22.961,98.528-28.134,122.3,22.074a58.423,58.423,0,0,1,2.606,6.453C213.98,55.65,215.83,63.306,215.722,69.065Z" transform="translate(3894.757 1286.9) rotate(180)" fill="url(#linear-gradient)"/>
    <path id="Tracé_38" data-name="Tracé 38" d="M252.537,0V155.807c-4.819-2.8-10.362-6.1-16.777-9.761a520.7,520.7,0,0,0-57.826-28.636A631.21,631.21,0,0,0,92.165,88.667C-99.046,38.551,76.745,73.246,15.064,0Z" transform="translate(2639.537 2263.398) rotate(180)" fill="url(#linear-gradient)"/>
    <path id="Tracé_39" data-name="Tracé 39" d="M57.169,5.4C26.328,87.125-36.895,131.073,28.642,119.507s83.27,30.07,62.452-41.635S57.169,0,57.169,0Z" transform="translate(2512.018 1645.794) rotate(180)" fill="url(#linear-gradient)"/>
    <path id="Tracé_40" data-name="Tracé 40" d="M145.722,368.453v-1.542H0V0C18.828,19.275,36.777,48.528,73.416,118.3q4.1,7.818,8.535,16.33c12.39,23.817,26.762,51.859,43.724,85.012l1.82,3.57c29.638,58.1,41.712,84.812,45.814,97.495,8.1,25.081-14.773-4.133,5.042,46.2l.617,1.542Z" transform="translate(4307.349 1551.453) rotate(180)" fill="url(#linear-gradient)"/>
    <path id="Tracé_41" data-name="Tracé 41" d="M333.264,0c-4.04,28.181-15.112,73.84-56.469,149.762C169.4,347.1,239.454,240.11,10.6,204.45L0,202.777V0Z" transform="translate(4307.349 2263.398) rotate(180)" fill="url(#linear-gradient)"/>
    <path id="Tracé_42" data-name="Tracé 42" d="M1.371,17.82C11.394,69.478,19.1,97.234,19.1,97.234s70.162,23.13,39.322-40.093S4.455-4.54,1.371,4.713,1.371,17.82,1.371,17.82Z" transform="translate(4233.932 2190.238) rotate(180)" fill="url(#linear-gradient)"/>
    <path id="Tracé_43" data-name="Tracé 43" d="M4.455,19.38c13.107,7.71,24.672,30.841,16.191,7.71S14.478-3.75,4.455,1.647,4.455,19.38,4.455,19.38Z" transform="translate(4238.558 2145.538) rotate(180)" fill="url(#linear-gradient)"/>
    <path id="Tracé_44" data-name="Tracé 44" d="M48.88,36.033C59.674,47.6,65.072,90.775,63.53,48.369S74.324-4.06,46.567,1.337,14.956,5.963,14.185,13.673-12.8,32.178,8.016,44.514s23.13,15.42,31.612,7.71S48.88,36.033,48.88,36.033Z" transform="translate(4299.175 2084.93) rotate(180)" fill="url(#linear-gradient)"/>
    <path id="Tracé_45" data-name="Tracé 45" d="M101.038,85.583C50.467,131.558,70.714,59.507,61.886,51.8c-1.141.979-2.737,2.421-4.8,4.48C52.464,60.91,45.525,69.391,34.731,75.56s-13.878-.771-23.9-4.626S1.577,65.536.035,10.794A60.194,60.194,0,0,1,.637,0h130.9c2.259,7.147,5.4,15.351,13.447,23.9C168.888,49.345,151.925,39.322,101.038,85.583Z" transform="translate(4190.19 2263.398) rotate(180)" fill="url(#linear-gradient)"/>
    <path id="Tracé_46" data-name="Tracé 46" d="M7.918,125.9S-22.151,234.617,34.9,159.057s90.98-53.2,55.513-102.545S44.927,4.854,36.446,7.938,5.605-18.276,2.521,19.5,7.918,125.9,7.918,125.9Z" transform="translate(4295.992 1870.146) rotate(180)" fill="url(#linear-gradient)"/>
    <path id="Tracé_47" data-name="Tracé 47" d="M33.542,25.211c-.2.655-.4,1.3-.594,1.943q-1.542,4.973-2.837,9.53c-14.094,48.427-12.76,61.774-12.76,61.774s20.817-.771,29.3-.771S79.032,100,80.574,79.953s23.9-57.826-9.252-63.994-29.3-10.794-29.3-10.794-34.7-14.649-37.009,5.4-10.023,19.275,0,23.9S33.542,25.211,33.542,25.211Z" transform="translate(4292.317 1977.036) rotate(180)" fill="url(#linear-gradient)"/>
    <path id="Tracé_48" data-name="Tracé 48" d="M0,20.046C26.986,57.055,37.009,94.835,40.864,61.681s6.168-27.757-.771-38.551S19.275,0,16.191,0H2.313Z" transform="translate(4271.112 1717.266) rotate(180)" fill="url(#linear-gradient)"/>
    <path id="Tracé_49" data-name="Tracé 49" d="M8.327,92.427c13.878,63.994-10.794,118.736,25.444,68.62S78.281,94.17,85.706,89.058s73.74-25.929,24.395-52.144S40.71-9.347,22.205,4.532-3.238-9.347,1.388,32.288,8.327,92.427,8.327,92.427Z" transform="translate(4265.56 1417.294) rotate(180)" fill="url(#linear-gradient)"/>
    <path id="Tracé_50" data-name="Tracé 50" d="M2.437,58.774c30.07,16.962,7.009,53.293,43.177,21.249s77.873-9.684,36.238-49.006S12.46.947,12.46.947.895,16.368.124,24.078,2.437,58.774,2.437,58.774Z" transform="translate(4301.305 1396.748) rotate(180)" fill="url(#linear-gradient)"/>
    <path id="Tracé_51" data-name="Tracé 51" d="M90.671,21.783V85.9c-5.243,1.118-10.794,2.39-16.777,3.855C64.4,92.123,54.033,95.03,42.869,98.685-20.447,119.409.887,96.726,16.1,61.121,21.28,49.047,25.713,35.477,25.906,21.6l3.084-4.626A25.328,25.328,0,0,1,42.869.781C50.425-2.743,68.5,5.9,90.671,21.783Z" transform="translate(2477.671 2207.124) rotate(180)" fill="url(#linear-gradient)"/>
    <path id="Tracé_52" data-name="Tracé 52" d="M81.436,8.907V186.672c-16.739-6.446-19.113-15.814-26.824-40.093-5.659-17.78-14.179-43.547-33.316-82.1C-16.606-11.81-.607-2.658,43.24,4.89A254.064,254.064,0,0,0,81.436,8.907Z" transform="translate(2468.437 1876.738) rotate(180)" fill="url(#linear-gradient)"/>
    <path id="Tracé_53" data-name="Tracé 53" d="M130.3,0V256.471H19.129a300.05,300.05,0,0,0-4.557-55.32C3.231,139.014-21.2,137.372,39.322,90.7,65.683,70.371,86.87,45.444,105.8,24.7c5.659-6.168,11.118-12.02,16.453-17.24C124.966,4.8,127.642,2.305,130.3,0Z" transform="translate(2517.302 1441.013) rotate(180)" fill="url(#linear-gradient)"/>
    <path id="Tracé_54" data-name="Tracé 54" d="M85.259,0C82.314,18.82,71.8,16.854,25.444,73.246,14.511,86.546,6.4,95.459,0,100.7V0Z" transform="translate(4307.349 2263.398) rotate(180)" fill="url(#linear-gradient)"/>
    <path id="Tracé_55" data-name="Tracé 55" d="M73.416,237.326C24.842,274.335,8.975,278.306,0,257.519V0A117.586,117.586,0,0,1,13.963,3.169C35.235,9.26,63.694,22.383,99.546,43.655q16.639,9.854,35.382,22.074C241.328,135.12,191.212,147.457,73.416,237.326Z" transform="translate(4307.349 1765.338) rotate(180)" fill="url(#linear-gradient)"/>
  </g>
</svg>
