<svg id="Calque_1"  xmlns="http://www.w3.org/2000/svg" xmlns:xlink="http://www.w3.org/1999/xlink" viewBox="0 0 1919.85 325.14"><defs><style>.cls-1{fill:url(#Dégradé_sans_nom_6);}.cls-2{fill:url(#Dégradé_sans_nom_6-2);}.cls-3{fill:url(#Dégradé_sans_nom_6-3);}.cls-4{fill:url(#Dégradé_sans_nom_6-4);}.cls-5{fill:url(#Dégradé_sans_nom_6-5);}.cls-6{fill:url(#Dégradé_sans_nom_6-6);}.cls-7{fill:url(#Dégradé_sans_nom_6-7);}.cls-8{fill:url(#Dégradé_sans_nom_6-8);}</style><linearGradient id="Dégradé_sans_nom_6" x1="1430.09" y1="1502.43" x2="1546.1" y2="1502.43" gradientTransform="translate(1780.75 -602.95) rotate(90.08)" gradientUnits="userSpaceOnUse"><stop offset="0" stop-color="#cd15be"/><stop offset="1" stop-color="#700ebd"/></linearGradient><linearGradient id="Dégradé_sans_nom_6-2" x1="1629.98" y1="426.62" x2="2550.19" y2="426.62" gradientTransform="translate(3027.45 1425.35) rotate(-179.92)" xlink:href="#Dégradé_sans_nom_6"/><linearGradient id="Dégradé_sans_nom_6-3" x1="1360.47" y1="1704.54" x2="1684.33" y2="1704.54" xlink:href="#Dégradé_sans_nom_6"/><linearGradient id="Dégradé_sans_nom_6-4" x1="1407.81" y1="38.48" x2="1683.16" y2="38.48" xlink:href="#Dégradé_sans_nom_6"/><linearGradient id="Dégradé_sans_nom_6-5" x1="2166.62" y1="424.76" x2="2446.18" y2="424.76" gradientTransform="translate(3027.45 1425.35) rotate(-179.92)" xlink:href="#Dégradé_sans_nom_6"/><linearGradient id="Dégradé_sans_nom_6-6" x1="1584.36" y1="111.56" x2="1683.14" y2="111.56" xlink:href="#Dégradé_sans_nom_6"/><linearGradient id="Dégradé_sans_nom_6-7" x1="1594.65" y1="719.86" x2="1683.7" y2="719.86" xlink:href="#Dégradé_sans_nom_6"/><linearGradient id="Dégradé_sans_nom_6-8" x1="1542.14" y1="1482.67" x2="1684.33" y2="1482.67" xlink:href="#Dégradé_sans_nom_6"/></defs><title>wall-back</title><path class="cls-1" d="M121.52,900l8.88.87c270,26.22,362.25,80,259.46-8.23s-159.73-64.8-159.73-64.8c-27,13.21-68.86,22.69-108.49,30.12Z" transform="translate(-0.15 -755)"/><path class="cls-2" d="M1398.08,996.61c-474.32-39.8-449.17-133-602.27-36.53s-581.45,133.2-85.6,102.45,568.66-13.07,614.93-38.24S1398.08,996.61,1398.08,996.61Z" transform="translate(-0.15 -755)"/><path class="cls-3" d="M101.56,1078.92.15,1078.85,1.12,755c98.59,68.56,147.06,43.08,146.7,97.72-.07,11.94-2.49,27.71-7.22,49.12-3.16,14.3-7.35,31.12-12.58,51-.43,1.69-.89,3.4-1.34,5.13C114.9,1002.43,107.32,1043,101.56,1078.92Z" transform="translate(-0.15 -755)"/><path class="cls-4" d="M1919.22,1080.14l-359.07-.24c6.46-5.25,14.08-11.28,22.55-18.27a592.57,592.57,0,0,0,66.18-62.93,517,517,0,0,0,66.52-93.45C1831.53,697,1751,888.47,1920,821.37Z" transform="translate(-0.15 -755)"/><path class="cls-5" d="M849,1005.49C660.73,971.76,559.65,902.8,586.09,974.23s-69.57,90.69,95.75,68.11,179.58-36.84,179.58-36.84Z" transform="translate(-0.15 -755)"/><path class="cls-6" d="M1739.33,1080l-147.77-.1c-2.56-5.72-5.47-11.81-8.86-18.29a327.06,327.06,0,0,0-20.48-33.82c-47.56-69,4.65-45.74,86.66-29.11,27.84,5.64,59.12,10.51,91.09,10.75l10.65,3.36s24.87,2.54,37.27,15.15C1796,1036.2,1776,1055.89,1739.33,1080Z" transform="translate(-0.15 -755)"/><path class="cls-7" d="M1253,1079.69l-409.68-.27c14.91-18.23,36.5-20.81,92.47-29.17,41-6.14,100.47-15.38,189.33-36.18,175.95-41.18,154.8-23.76,137.26,24C1258,1050.16,1253.76,1064.18,1253,1079.69Z" transform="translate(-0.15 -755)"/><path class="cls-8" d="M591.23,1079.25l-591.08-.4L.52,957.71c52.34.1,93.79-2,127.5-4.88C271.26,940.57,275.13,914,382.49,980c46.77,28.76,104.15,51.88,151.9,72.54,14.27,6.18,27.67,12.13,39.68,18C580.17,1073.43,585.92,1076.35,591.23,1079.25Z" transform="translate(-0.15 -755)"/></svg>