<?xml version="1.0" encoding="iso-8859-1"?>
<!-- Generator: Adobe Illustrator 19.0.0, SVG Export Plug-In . SVG Version: 6.00 Build 0)  -->
<svg version="1.1" id="Capa_1" xmlns="http://www.w3.org/2000/svg" xmlns:xlink="http://www.w3.org/1999/xlink" x="0px" y="0px"
	 viewBox="0 0 422.721 422.721" style="enable-background:new 0 0 422.721 422.721;" xml:space="preserve">
<g>
	<path style="fill:#FF4979;" d="M217.247,297.507c-0.075-52.577,42.487-95.261,95.064-95.336
		c27.139-0.039,53.004,11.507,71.096,31.736l4-4c47.077-47.066,47.086-123.383,0.02-170.46s-123.383-47.086-170.46-0.02l0,0l-4,4
		l-4-4C163.753,10.579,87.501,7.633,38.653,52.847s-51.794,121.466-6.58,170.314c2.056,2.222,4.196,4.365,6.414,6.426l170.8,170.8
		c1.232,0.892,2.684,1.432,4.2,1.56c1.187-0.004,2.323-0.479,3.16-1.32l32.32-32.28C228.79,350.327,217.252,324.56,217.247,297.507
		L217.247,297.507z"/>
	<path style="fill:#FF4979;" d="M312.567,214.867c-45.663,0-82.68,37.017-82.68,82.68s37.017,82.68,82.68,82.68
		s82.68-37.017,82.68-82.68l0,0C395.203,251.903,358.212,214.911,312.567,214.867z M376.567,297.547c0,7.401-5.999,13.4-13.4,13.4
		h-37.2v37.24c0.007,7.401-5.987,13.405-13.388,13.412c-7.401,0.007-13.405-5.987-13.412-13.388c0-0.008,0-0.016,0-0.024v-37.24
		h-37.24c-7.401-0.007-13.395-6.011-13.388-13.412c0.007-7.391,5.997-13.381,13.388-13.388h37.24v-37.24
		c-0.007-7.401,5.987-13.405,13.388-13.412c7.401-0.007,13.405,5.987,13.412,13.388c0,0.008,0,0.016,0,0.024v37.2h37.24
		c7.401,0,13.4,5.999,13.4,13.4L376.567,297.547z"/>
</g>
<g>
</g>
<g>
</g>
<g>
</g>
<g>
</g>
<g>
</g>
<g>
</g>
<g>
</g>
<g>
</g>
<g>
</g>
<g>
</g>
<g>
</g>
<g>
</g>
<g>
</g>
<g>
</g>
<g>
</g>
</svg>
