<svg xmlns="http://www.w3.org/2000/svg" xmlns:xlink="http://www.w3.org/1999/xlink" viewBox="0 0 604.01 830.5"><defs><style>.cls-1{fill:url(#Dégradé_sans_nom_2);}.cls-2{fill:url(#Dégradé_sans_nom_38);}.cls-3{fill:url(#Dégradé_sans_nom_2-2);}.cls-4{fill:url(#Dégradé_sans_nom_2-3);}.cls-5{fill:url(#Dégradé_sans_nom_39);}.cls-6{fill:#fff;}</style><linearGradient id="Dégradé_sans_nom_2" x1="301.79" y1="47.56" x2="306.25" y2="449.69" gradientUnits="userSpaceOnUse"><stop offset="0" stop-color="#6e07bf"/><stop offset="1" stop-color="#cd0fc0"/></linearGradient><linearGradient id="Dégradé_sans_nom_38" x1="522.37" y1="935.51" x2="527.17" y2="1368.16" gradientUnits="userSpaceOnUse"><stop offset="0" stop-color="#6e07bf"/><stop offset="0.22" stop-color="#7207bf"/><stop offset="0.42" stop-color="#7d08bf"/><stop offset="0.62" stop-color="#8f0abf"/><stop offset="0.8" stop-color="#a90cc0"/><stop offset="0.99" stop-color="#ca0fc0"/><stop offset="1" stop-color="#cd0fc0"/></linearGradient><linearGradient id="Dégradé_sans_nom_2-2" x1="209.7" y1="543.02" x2="218.89" y2="1371.78" xlink:href="#Dégradé_sans_nom_2"/><linearGradient id="Dégradé_sans_nom_2-3" x1="214.7" y1="870.75" x2="215.13" y2="870.75" xlink:href="#Dégradé_sans_nom_2"/><linearGradient id="Dégradé_sans_nom_39" x1="511.65" y1="537.52" x2="519.76" y2="1268.91" gradientUnits="userSpaceOnUse"><stop offset="0" stop-color="#6e07bf"/><stop offset="0.03" stop-color="#7307bf"/><stop offset="0.32" stop-color="#9a0bbf"/><stop offset="0.59" stop-color="#b60dc0"/><stop offset="0.83" stop-color="#c70ec0"/><stop offset="1" stop-color="#cd0fc0"/></linearGradient></defs><title>logo - violet</title><g id="Calque_5" data-name="Calque 5"><circle class="cls-1" cx="304.01" cy="248" r="201.5"/><path class="cls-2" d="M804.67,931.26C747.36,1198.58,522,1368,522,1368c-170.82-132.32-247.24-276.69-281.41-381.13,18.45,45.45,44.56,86.46,73.43,122.47,62.94,78.49,139,133.18,177.74,158.22a9.68,9.68,0,0,0,14.44-11.22,276.39,276.39,0,0,1-13.61-63.85c-5.93-67.66,14.24-157.85,138.69-214.1a9.66,9.66,0,0,1,12.23,3.83c9.91,16.41,32.57,57.35,31.22,86.34a9.68,9.68,0,0,0,14.35,8.92C720.13,1060.34,778.9,1017.73,804.67,931.26Z" transform="translate(-212.99 -537.5)"/><path class="cls-3" d="M213,842.32c0-.73,0-1.35,0-1.85v-.1c0-.36,0-.65,0-.87v.5C213,840.77,213,841.55,213,842.32Z" transform="translate(-212.99 -537.5)"/></g><g id="Calque_2" data-name="Calque 2"><path class="cls-4" d="M214.7,868.71c.13,1.32.27,2.68.43,4.08C215,871.39,214.83,870,214.7,868.71Z" transform="translate(-212.99 -537.5)"/><path class="cls-5" d="M817,839v0a585.21,585.21,0,0,1-7.85,69.19q-2,11.64-4.48,23c-25.77,86.47-84.54,129.08-115.59,146.22a9.68,9.68,0,0,1-14.35-8.92c1.35-29-21.31-69.93-31.22-86.34a9.66,9.66,0,0,0-12.23-3.83c-124.45,56.25-144.62,146.44-138.69,214.1a276.39,276.39,0,0,0,13.61,63.85,9.68,9.68,0,0,1-14.44,11.22c-38.7-25-114.8-79.73-177.74-158.22-28.87-36-55-77-73.43-122.47a598.15,598.15,0,0,1-22.16-90.07l0-.13q-.41-2.52-.78-4.95c-.22-1.49-.44-3-.64-4.38q-1.12-7.86-1.85-14.55c-.15-1.4-.3-2.76-.43-4.08,0-.36-.08-.72-.11-1.08-.11-1.06-.2-2.1-.3-3.11-.12-1.34-.23-2.64-.33-3.89-.07-.77-.13-1.53-.18-2.27l0-.41c0-.38-.05-.76-.08-1.13,0-.56-.07-1.1-.11-1.63,0-.27,0-.53-.05-.79s0-.52,0-.77,0-.57-.05-.85v0q0-.54-.06-1.05c0-.51-.06-1-.08-1.49-.05-.91-.08-1.77-.11-2.57,0-.35,0-.69,0-1s0-.65,0-1l0-.89c0-.21,0-.42,0-.62s0-.67,0-1,0-.57,0-.83c0-.77,0-1.55,0-2.32v-1c.27-166.56,135.38-301.5,302-301.5A302,302,0,0,1,817,839Z" transform="translate(-212.99 -537.5)"/><path class="cls-6" d="M213,840c0,.77,0,1.55,0,2.32,0-.73,0-1.35,0-1.85v-.1C213,840.25,213,840.12,213,840Z" transform="translate(-212.99 -537.5)"/></g></svg>