<svg xmlns="http://www.w3.org/2000/svg" xmlns:xlink="http://www.w3.org/1999/xlink" viewBox="0 0 604.01 830.5"><defs><style>.cls-1{fill:url(#Dégradé_sans_nom_11);}.cls-2{fill:url(#Dégradé_sans_nom_15);}.cls-3{fill:url(#Dégradé_sans_nom_2);}.cls-4{fill:url(#Dégradé_sans_nom_2-2);}.cls-5{fill:url(#Dégradé_sans_nom_2-3);}.cls-6{fill:url(#Dégradé_sans_nom_16);}.cls-7{fill:#fff;}.cls-8{fill:url(#Dégradé_sans_nom_35);}</style><linearGradient id="Dégradé_sans_nom_11" x1="301.79" y1="47.56" x2="306.25" y2="449.69" gradientUnits="userSpaceOnUse"><stop offset="0" stop-color="#7924f4"/><stop offset="1" stop-color="#56b0f1"/></linearGradient><linearGradient id="Dégradé_sans_nom_15" x1="522.37" y1="935.51" x2="527.17" y2="1368.16" gradientUnits="userSpaceOnUse"><stop offset="0" stop-color="#7924f4"/><stop offset="0.19" stop-color="#7827f4"/><stop offset="0.36" stop-color="#7632f4"/><stop offset="0.52" stop-color="#7144f3"/><stop offset="0.67" stop-color="#6b5df3"/><stop offset="0.82" stop-color="#637df2"/><stop offset="0.96" stop-color="#59a4f1"/><stop offset="1" stop-color="#56b0f1"/></linearGradient><linearGradient id="Dégradé_sans_nom_2" x1="212.83" y1="601.18" x2="220.51" y2="1293.6" gradientUnits="userSpaceOnUse"><stop offset="0" stop-color="#6e07bf"/><stop offset="1" stop-color="#cd0fc0"/></linearGradient><linearGradient id="Dégradé_sans_nom_2-2" x1="209.7" y1="543.02" x2="218.89" y2="1371.78" xlink:href="#Dégradé_sans_nom_2"/><linearGradient id="Dégradé_sans_nom_2-3" x1="213.35" y1="874.72" x2="218.4" y2="874.72" xlink:href="#Dégradé_sans_nom_2"/><linearGradient id="Dégradé_sans_nom_16" x1="511.65" y1="537.52" x2="519.76" y2="1268.91" gradientUnits="userSpaceOnUse"><stop offset="0" stop-color="#7924f4"/><stop offset="0.03" stop-color="#7829f4"/><stop offset="0.36" stop-color="#6963f3"/><stop offset="0.64" stop-color="#5f8df2"/><stop offset="0.87" stop-color="#58a6f1"/><stop offset="1" stop-color="#56b0f1"/></linearGradient><linearGradient id="Dégradé_sans_nom_35" x1="210.93" y1="847.66" x2="215.48" y2="851.23" gradientUnits="userSpaceOnUse"><stop offset="0" stop-color="#cc15be"/><stop offset="1" stop-color="#af0fc1"/></linearGradient></defs><title>logo - ami</title><g id="Calque_5" data-name="Calque 5"><circle class="cls-1" cx="304.01" cy="248" r="201.5"/><path class="cls-2" d="M804.67,931.26C747.36,1198.58,522,1368,522,1368c-170.82-132.32-247.24-276.69-281.41-381.13,18.45,45.45,44.56,86.46,73.43,122.47,62.94,78.49,139,133.18,177.74,158.22a9.68,9.68,0,0,0,14.44-11.22,276.39,276.39,0,0,1-13.61-63.85c-5.93-67.66,14.24-157.85,138.69-214.1a9.66,9.66,0,0,1,12.23,3.83c9.91,16.41,32.57,57.35,31.22,86.34a9.68,9.68,0,0,0,14.35,8.92C720.13,1060.34,778.9,1017.73,804.67,931.26Z" transform="translate(-212.99 -537.5)"/><path class="cls-3" d="M218.4,896.67A303.53,303.53,0,0,1,213.35,854V854h0c0-.4,0-.78.06-1.17,0,.28,0,.56.05.85s0,.51,0,.77,0,.52.05.79c0,.53.07,1.07.11,1.63,0,.37.05.75.08,1.13l0,.41c.05.74.11,1.5.18,2.27.1,1.25.21,2.55.33,3.89.09,1,.19,2.05.3,3.11,0,.36.07.72.11,1.08.13,1.32.27,2.68.43,4.08q.74,6.69,1.85,14.55c.2,1.43.42,2.89.64,4.38S218.13,895,218.4,896.67Z" transform="translate(-212.99 -537.5)"/><path class="cls-4" d="M213,842.32c0-.73,0-1.35,0-1.85v-.1c0-.36,0-.65,0-.87v.5C213,840.77,213,841.55,213,842.32Z" transform="translate(-212.99 -537.5)"/></g><g id="Calque_2" data-name="Calque 2"><path class="cls-5" d="M217.62,891.72c-.22-1.49-.44-3-.64-4.38q-1.12-7.86-1.85-14.55c-.15-1.4-.3-2.76-.43-4.08,0-.36-.08-.72-.11-1.08-.11-1.06-.2-2.1-.3-3.11-.12-1.34-.23-2.64-.33-3.89-.07-.77-.13-1.53-.18-2.27l0-.41c0-.38-.05-.76-.08-1.13,0-.56-.07-1.1-.11-1.63,0-.27,0-.53-.05-.79s0-.52,0-.77,0-.57-.05-.85c0,.39,0,.77-.06,1.17h0V854a303.53,303.53,0,0,0,5.05,42.65Q218,894.15,217.62,891.72Z" transform="translate(-212.99 -537.5)"/><path class="cls-6" d="M817,839v0a585.21,585.21,0,0,1-7.85,69.19q-2,11.64-4.48,23c-25.77,86.47-84.54,129.08-115.59,146.22a9.68,9.68,0,0,1-14.35-8.92c1.35-29-21.31-69.93-31.22-86.34a9.66,9.66,0,0,0-12.23-3.83c-124.45,56.25-144.62,146.44-138.69,214.1a276.39,276.39,0,0,0,13.61,63.85,9.68,9.68,0,0,1-14.44,11.22c-38.7-25-114.8-79.73-177.74-158.22-28.87-36-55-77-73.43-122.47a598.15,598.15,0,0,1-22.16-90.07l0-.13q-.41-2.52-.78-4.95c-.22-1.49-.44-3-.64-4.38q-1.12-7.86-1.85-14.55c-.15-1.4-.3-2.76-.43-4.08,0-.36-.08-.72-.11-1.08-.11-1.06-.2-2.1-.3-3.11-.12-1.34-.23-2.64-.33-3.89-.07-.77-.13-1.53-.18-2.27l0-.41c0-.38-.05-.76-.08-1.13,0-.56-.07-1.1-.11-1.63,0-.27,0-.53-.05-.79s0-.52,0-.77,0-.57-.05-.85v0q0-.54-.06-1.05c0-.51-.06-1-.08-1.49-.05-.91-.08-1.77-.11-2.57,0-.35,0-.69,0-1s0-.65,0-1l0-.89c0-.21,0-.42,0-.62s0-.67,0-1,0-.57,0-.83c0-.77,0-1.55,0-2.32v-1c.27-166.56,135.38-301.5,302-301.5A302,302,0,0,1,817,839Z" transform="translate(-212.99 -537.5)"/><path class="cls-7" d="M213,840c0,.77,0,1.55,0,2.32,0-.73,0-1.35,0-1.85v-.1C213,840.25,213,840.12,213,840Z" transform="translate(-212.99 -537.5)"/><path class="cls-8" d="M213.41,852.73v0c0,.39,0,.77-.06,1.17-.14-3-.24-6-.29-9l0,.7q0,.47,0,1c0,.33,0,.67,0,1,0,.8.06,1.66.11,2.57,0,.48,0,1,.08,1.49Q213.38,852.19,213.41,852.73Z" transform="translate(-212.99 -537.5)"/></g></svg>