<svg id="Calque_1" data-name="Calque 1" xmlns="http://www.w3.org/2000/svg" xmlns:xlink="http://www.w3.org/1999/xlink" viewBox="0 0 1920 3000"><defs><style>.cls-1{fill:url(#Dégradé_sans_nom_5);}.cls-2{fill:url(#Dégradé_sans_nom_9);}.cls-3{fill:url(#Dégradé_sans_nom_5-2);}.cls-4{fill:url(#Dégradé_sans_nom_6);}.cls-5{fill:url(#Dégradé_sans_nom_5-3);}.cls-6{fill:url(#Dégradé_sans_nom_7);}.cls-7{fill:url(#Dégradé_sans_nom_5-4);}.cls-8{fill:url(#Dégradé_sans_nom_5-5);}.cls-9{fill:url(#Dégradé_sans_nom_8);}.cls-10{fill:url(#Dégradé_sans_nom_5-6);}.cls-11{fill:url(#Dégradé_sans_nom_5-7);}.cls-12{fill:url(#Dégradé_sans_nom_5-8);}.cls-13{fill:url(#Dégradé_sans_nom_5-9);}</style><linearGradient id="Dégradé_sans_nom_5" x1="947.99" y1="-7.55" x2="971.72" y2="2970.41" gradientUnits="userSpaceOnUse"><stop offset="0" stop-color="#20a86a"/><stop offset="1" stop-color="#13723f"/></linearGradient><linearGradient id="Dégradé_sans_nom_9" x1="508.62" y1="-4.05" x2="519.66" y2="1381.37" gradientUnits="userSpaceOnUse"><stop offset="0" stop-color="#20a86a"/><stop offset="0.32" stop-color="#1d9b5f"/><stop offset="0.92" stop-color="#147743"/><stop offset="1" stop-color="#13723f"/></linearGradient><linearGradient id="Dégradé_sans_nom_5-2" x1="1724.89" y1="120.99" x2="1730.09" y2="772.88" xlink:href="#Dégradé_sans_nom_5"/><linearGradient id="Dégradé_sans_nom_6" x1="1271.56" y1="-0.28" x2="1273.29" y2="216.28" gradientUnits="userSpaceOnUse"><stop offset="0" stop-color="#20a86a"/><stop offset="0.34" stop-color="#1fa568"/><stop offset="0.58" stop-color="#1d9c61"/><stop offset="0.78" stop-color="#198d54"/><stop offset="0.96" stop-color="#147743"/><stop offset="1" stop-color="#13723f"/></linearGradient><linearGradient id="Dégradé_sans_nom_5-3" x1="897.58" y1="472.34" x2="899.7" y2="738.97" xlink:href="#Dégradé_sans_nom_5"/><linearGradient id="Dégradé_sans_nom_7" x1="1530.33" y1="335.88" x2="1531.95" y2="539.16" gradientUnits="userSpaceOnUse"><stop offset="0" stop-color="#20a86a"/><stop offset="0.26" stop-color="#1fa467"/><stop offset="0.55" stop-color="#1c975c"/><stop offset="0.84" stop-color="#17814b"/><stop offset="1" stop-color="#13723f"/></linearGradient><linearGradient id="Dégradé_sans_nom_5-4" x1="1565.52" y1="781.43" x2="1571.03" y2="1472.59" xlink:href="#Dégradé_sans_nom_5"/><linearGradient id="Dégradé_sans_nom_5-5" x1="339.76" y1="1331.3" x2="346.28" y2="2149.96" xlink:href="#Dégradé_sans_nom_5"/><linearGradient id="Dégradé_sans_nom_8" x1="1262.97" y1="1059.45" x2="1269.25" y2="1846.63" gradientUnits="userSpaceOnUse"><stop offset="0" stop-color="#20a86a"/><stop offset="0.43" stop-color="#1b935a"/><stop offset="1" stop-color="#13723f"/></linearGradient><linearGradient id="Dégradé_sans_nom_5-6" x1="1760.87" y1="2131.48" x2="1766.05" y2="2781.3" xlink:href="#Dégradé_sans_nom_5"/><linearGradient id="Dégradé_sans_nom_5-7" x1="89.5" y1="2179.22" x2="92.96" y2="2613.94" xlink:href="#Dégradé_sans_nom_5"/><linearGradient id="Dégradé_sans_nom_5-8" x1="804.06" y1="2441.25" x2="808.48" y2="2996.16" xlink:href="#Dégradé_sans_nom_5"/><linearGradient id="Dégradé_sans_nom_5-9" x1="1534.06" y1="2096.24" x2="1541.18" y2="2990.29" xlink:href="#Dégradé_sans_nom_5"/></defs><title>wall-pro</title><rect class="cls-1" width="1920" height="3000"/><path class="cls-2" d="M562,273C337,212,286,415,270,632s424,434,178,709C261.42,1549.58,86.34,1170.23,0,759.7V0H883.88C945,23.58,989.07,47.41,1006,69,1104,194,787,334,562,273Z"/><path class="cls-3" d="M1920,119.44V773.62c-55.82,44.26-70.13-166-36-319.62,46-207-20-18-264-174C1408.41,144.72,1596.88,165.1,1920,119.44Z"/><path class="cls-4" d="M1377,108c-78,59-8,6-69-55s-36-14-46,71,39,27-97,86c-114,49.45,1.76-92.2,71-210h191.76C1428.27,33,1419.07,76.18,1377,108Z"/><path class="cls-5" d="M991,473c-29,37-399-74-243,112s156,214,289,46S991,473,991,473Z"/><path class="cls-6" d="M1626,461c-50,59-194,138-189,20s79-186,125-118S1626,461,1626,461Z"/><path class="cls-7" d="M1920,778.61v255.55c-15.23-15.63-42.78-48.89-77-112.16-53-98-30,3-140,359s-124,195-431-156C1039.93,859.66,1539.31,833.77,1920,778.61Z"/><path class="cls-8" d="M377,1915S187,2281,23,2122a184.61,184.61,0,0,1-23-27.39V1427.29C145.18,1654.42,52,1949.66,316,1734c295-241,297-577,363-302S377,1915,377,1915Z"/><path class="cls-9" d="M1565,1683c-354-178-406-870-562-529s-156,346-156,346-96,400,330,354,547,39,517-88S1565,1683,1565,1683Z"/><path class="cls-10" d="M1920,2360.92v427.26c-210.09-452.26-511.14-860.91-143-542.18C1829.12,2291.13,1876.84,2328.94,1920,2360.92Z"/><path class="cls-11" d="M18,2617q-9.3,1.68-18,3.1V2190.82c15.29-26.37,38.74-7.78,98,82.18C264,2525,167,2590,18,2617Z"/><path class="cls-12" d="M421.4,3000c224.32-312.8-123.07-653.85,240.6-531,373,126,144,169,378,355,99.23,78.87,140.73,136.17,155.63,176Z"/><path class="cls-13" d="M1721.43,3000H1536.85c-344.52-943-102.06-1057.77-55.85-751,47,312,94,224,145,480C1669.62,2948,1653.26,2952.57,1721.43,3000Z"/></svg>